<svg xmlns="http://www.w3.org/2000/svg" width="164" height="330" viewBox="0 0 164 330" fill="currentColor" style="shape-rendering:geometricPrecision;text-rendering:geometricPrecision;image-rendering:optimizeQuality;fill-rule:evenodd;clip-rule:evenodd"><path d="M65 1q2 0 0 0m11 0q14-4 21 10l1 72 39-47q14-8 24 5 3 9-1 19l-65 80q-13 12-27 0L2 58q-6-21 15-24 7 0 13 6l34 42 2-57Q61 9 76 1" style="opacity:1"/><path d="M11 149h142q13 7 9 22-3 6-9 9H11q-11-4-10-15-1-12 10-16" style="opacity:1"/><path d="M0 283v-5q2-7 6-12l62-76q14-12 27 0l66 82q6 20-15 24-7-1-13-6l-34-42-1 57q3 30-26 21-4-3-6-7l-1-72-38 46q-19 9-27-10m98 45q2 0 0 0" style="opacity:1"/></svg>